<?xml version="1.0" standalone="no"?>
<!DOCTYPE svg PUBLIC "-//W3C//DTD SVG 20010904//EN"
 "http://www.w3.org/TR/2001/REC-SVG-20010904/DTD/svg10.dtd">
<svg version="1.0" xmlns="http://www.w3.org/2000/svg"
 width="781.000000pt" height="298.000000pt" viewBox="0 0 781.000000 298.000000"
 preserveAspectRatio="xMidYMid meet">
<metadata>
Created by potrace 1.16, written by Peter Selinger 2001-2019
</metadata>
<g transform="translate(0.000000,298.000000) scale(0.100000,-0.100000)"
fill="#000000" stroke="none">
<path d="M5435 2075 c19 -31 35 -63 35 -73 0 -10 -20 -38 -45 -62 -76 -75 -52
-94 44 -35 31 18 69 46 84 60 26 24 27 29 14 48 -18 29 -134 117 -153 117 -10
0 -4 -16 21 -55z"/>
<path d="M2884 2055 c-45 -13 -107 -36 -139 -50 -73 -32 -88 -31 -50 2 l30 25
-40 -22 c-73 -42 -105 -83 -105 -135 0 -39 35 -33 203 41 162 70 204 77 199
34 -4 -39 -60 -115 -186 -252 -64 -70 -116 -136 -116 -146 0 -24 37 -72 55
-72 8 0 66 59 131 131 167 186 333 329 384 329 24 0 24 -2 4 -43 -24 -46 -75
-107 -186 -224 -85 -89 -98 -107 -98 -137 0 -18 8 -44 18 -56 l18 -22 61 53
c220 193 283 246 337 286 70 52 135 87 144 78 3 -3 -35 -44 -86 -91 -103 -96
-144 -149 -163 -212 -11 -37 -10 -48 4 -76 36 -76 128 -67 279 28 48 29 89 51
92 48 3 -3 6 -14 6 -24 0 -10 13 -32 29 -50 27 -30 34 -33 88 -32 34 0 72 8
93 19 47 24 165 110 221 163 39 36 56 44 100 49 l54 6 -47 -51 c-58 -65 -70
-98 -52 -140 11 -26 19 -32 44 -32 36 0 89 26 145 70 l39 31 23 -45 c12 -24
33 -52 45 -60 50 -35 139 -10 251 70 27 20 50 34 50 32 54 -111 69 -115 177
-46 108 69 110 70 110 64 0 -3 -26 -36 -58 -73 -80 -93 -142 -183 -142 -204 0
-71 31 -63 125 32 44 44 124 119 179 167 54 47 94 88 88 90 -10 3 -81 -41
-190 -118 -39 -27 -42 -28 -31 -7 14 26 69 96 122 152 65 70 92 115 81 133
-18 28 -28 24 -98 -36 -101 -88 -262 -179 -282 -160 -13 14 9 48 44 70 48 29
132 107 132 123 0 6 -8 19 -18 28 -16 15 -21 15 -47 1 -60 -31 -139 -100 -168
-145 -24 -39 -41 -52 -107 -83 -86 -40 -150 -47 -188 -20 -48 33 -16 87 77
128 40 19 44 19 52 3 9 -16 13 -16 40 -2 36 19 82 86 73 108 -13 34 -63 32
-139 -6 -69 -34 -164 -107 -180 -137 -28 -53 -157 -103 -171 -66 -8 21 6 42
72 108 54 54 57 59 46 83 l-12 26 -93 -7 c-85 -6 -91 -6 -78 10 12 14 11 16
-6 16 -31 0 -83 -41 -107 -83 -21 -37 -21 -38 -2 -52 19 -15 19 -16 -8 -44
-38 -39 -145 -92 -199 -98 -36 -4 -49 -1 -66 16 -26 26 -27 50 -3 58 111 39
174 68 205 97 66 60 41 115 -46 101 -94 -16 -217 -93 -251 -158 -16 -29 -37
-44 -115 -81 -100 -48 -129 -54 -149 -34 -50 50 84 243 283 405 l50 41 -21 28
c-12 16 -32 30 -45 32 -31 4 -193 -99 -360 -230 -70 -54 -130 -98 -133 -98 -3
0 17 28 44 63 81 99 150 204 150 225 0 25 -25 52 -48 52 -54 0 -203 -97 -328
-213 -40 -37 -75 -67 -78 -67 -4 0 12 28 34 63 84 128 93 165 49 220 -25 33
-41 33 -145 2z"/>
<path d="M5792 1840 c-12 -5 -26 -20 -31 -33 -5 -12 -56 -60 -114 -105 -71
-56 -106 -90 -109 -107 -11 -54 73 -125 147 -125 65 0 266 113 243 136 -3 2
-31 -9 -64 -26 -51 -26 -144 -50 -144 -37 0 2 22 18 48 34 27 17 61 47 76 66
23 30 27 44 23 79 -5 49 -31 121 -43 124 -5 2 -19 -1 -32 -6z m-35 -117 c1
-10 4 -32 6 -49 6 -43 -8 -71 -44 -93 l-32 -20 -29 25 c-16 13 -36 24 -45 24
-8 0 -13 5 -11 11 3 10 137 117 148 118 3 1 6 -7 7 -16z"/>
<path d="M5560 1352 c11 -8 -1 -12 -45 -14 l-60 -3 95 -13 c398 -55 551 -66
646 -47 64 14 218 65 212 70 -2 2 -28 -1 -58 -6 -88 -15 -346 -20 -450 -9 -52
5 -144 12 -205 14 -60 3 -119 7 -130 11 -16 5 -17 5 -5 -3z"/>
<path d="M798 1219 l-23 -6 26 -11 c46 -19 382 -82 496 -93 84 -8 129 -8 182
1 l70 12 -35 31 c-36 31 -114 52 -98 26 4 -7 3 -9 -3 -6 -8 5 -114 17 -173 19
-8 0 -71 6 -140 14 -146 16 -269 22 -302 13z"/>
<path d="M5244 1179 c-26 -5 -23 -6 26 -18 30 -6 134 -26 230 -42 262 -46 343
-40 495 39 33 17 58 31 55 31 -3 1 -51 -8 -108 -19 -124 -24 -202 -25 -350 -4
-118 16 -297 23 -348 13z"/>
<path d="M4829 1136 c-2 -2 -22 -5 -44 -7 -22 -1 -44 -6 -50 -10 -5 -4 -24
-10 -42 -13 -36 -8 -85 -53 -81 -74 2 -11 18 -15 61 -15 60 1 94 12 41 14 -23
1 -19 3 16 10 25 5 63 11 84 14 l40 5 -25 -27 c-77 -88 -95 -103 -125 -103
-17 0 -40 -9 -53 -21 -21 -19 -21 -23 -7 -37 14 -14 11 -20 -30 -64 -43 -46
-49 -68 -19 -68 8 0 33 25 55 55 22 30 42 55 44 55 8 0 198 -71 255 -94 81
-35 91 -34 91 9 0 31 -4 36 -46 55 -26 11 -53 20 -60 20 -8 0 -22 4 -32 9 -18
11 -114 42 -137 45 -8 1 -18 6 -22 10 -4 5 4 6 19 2 29 -7 128 5 245 30 49 11
82 24 102 42 25 23 51 61 51 75 0 14 -51 56 -80 66 -33 12 -242 26 -251 17z
m254 -81 c20 -8 22 -28 5 -42 -19 -15 -105 -41 -178 -53 -36 -6 -78 -13 -95
-17 -30 -6 -30 -6 18 45 26 28 47 56 47 61 0 5 8 11 18 14 25 6 164 0 185 -8z"/>
<path d="M976 1038 c3 -4 -15 -8 -38 -10 -93 -7 496 -108 622 -107 39 0 93 9
135 22 l69 23 -34 20 c-31 19 -48 21 -145 18 -60 -1 -137 1 -170 6 -33 5 -85
11 -115 15 -30 3 -76 8 -102 11 -71 9 -227 10 -222 2z"/>
<path d="M6161 964 c-55 -56 -178 -144 -203 -144 -30 0 -21 37 20 74 35 33 36
36 20 52 -15 16 -22 13 -110 -48 -125 -87 -129 -89 -82 -36 49 53 67 84 58 99
-11 18 -55 0 -132 -57 -94 -68 -123 -71 -58 -5 39 39 44 49 31 55 -23 8 -43
-5 -97 -63 -26 -28 -54 -51 -63 -51 -19 0 -19 1 2 44 16 34 16 37 -3 57 -10
12 -17 24 -14 28 9 11 -40 13 -74 1 -40 -13 -116 -76 -116 -96 0 -15 -48 -39
-58 -29 -3 3 2 22 12 41 15 32 15 38 2 53 -8 9 -15 21 -15 26 -1 36 -111 2
-165 -51 -44 -42 -49 -89 -13 -121 36 -32 53 -33 102 -7 25 13 51 24 58 24 7
0 25 7 40 15 26 13 28 13 37 -10 5 -13 22 -31 37 -39 25 -12 33 -12 63 0 19 8
41 21 50 28 8 7 31 16 51 19 31 5 38 2 49 -19 19 -34 36 -30 89 22 50 50 101
82 101 63 0 -6 -14 -31 -32 -55 -25 -35 -29 -47 -19 -57 14 -14 23 -9 127 70
72 55 96 62 51 15 -29 -31 -45 -86 -28 -96 11 -7 75 19 123 51 27 17 28 17 44
-5 8 -12 29 -29 45 -38 27 -14 35 -14 73 -1 48 16 131 66 123 73 -3 3 -18 -1
-34 -9 -15 -8 -46 -18 -68 -22 l-40 -7 40 29 c65 48 69 56 59 116 -6 33 -14
53 -24 54 -8 2 -35 -18 -59 -43z"/>
<path d="M4416 992 c-5 -4 -249 -30 -338 -36 -42 -3 -116 -16 -164 -30 -49
-15 -97 -26 -108 -26 -40 0 -4 -13 70 -26 68 -12 93 -11 223 6 195 26 478 86
466 99 -7 6 -144 19 -149 13z"/>
<path d="M1177 826 c-20 -8 -17 -10 23 -23 77 -24 329 -72 465 -88 191 -24
333 -2 484 74 l55 28 -31 7 c-18 4 -55 1 -89 -8 -102 -26 -224 -38 -299 -30
-38 4 -73 7 -77 6 -7 -2 -185 15 -243 22 -144 20 -258 24 -288 12z"/>
<path d="M3383 755 l-58 -10 95 -13 c52 -7 109 -15 125 -17 86 -13 289 -36
350 -40 39 -3 81 -8 95 -11 34 -9 141 -5 220 7 69 10 299 81 281 87 -5 2 -61
-3 -123 -12 -150 -20 -322 -31 -315 -20 3 5 -29 9 -71 9 -43 0 -106 3 -142 7
-183 21 -381 26 -457 13z"/>
<path d="M5072 708 c-15 -5 -54 -8 -87 -8 -89 -1 -187 -7 -215 -13 -25 -6 -74
-11 -238 -23 -101 -8 -100 -18 3 -15 52 2 75 -1 75 -10 0 -9 3 -9 14 0 8 7 41
12 73 12 32 -1 126 2 208 6 83 4 220 7 307 7 86 1 154 4 151 9 -2 4 78 7 179
7 101 0 178 -4 171 -8 -9 -6 48 -7 171 -3 16 1 27 3 25 5 -5 5 -148 26 -214
31 -101 8 -596 10 -623 3z"/>
<path d="M1200 677 c0 -16 297 -89 434 -108 87 -12 227 -14 321 -4 33 3 85 8
115 10 30 3 89 10 130 15 41 5 98 12 125 14 129 13 338 46 331 53 -10 11 -387
1 -606 -15 -47 -3 -186 -6 -310 -6 -205 0 -348 11 -507 40 -18 4 -33 4 -33 1z"/>
<path d="M3105 600 c-53 -3 -89 -11 -106 -23 -69 -46 -342 -79 -619 -74 -107
2 -179 2 -160 0 19 -2 64 -8 99 -14 176 -28 316 -26 641 10 227 26 407 26 553
0 62 -11 171 -22 242 -25 144 -5 579 -11 555 -7 -61 10 -279 35 -339 39 -41 3
-131 12 -200 20 -69 8 -133 15 -141 15 -35 1 -397 51 -420 57 -14 4 -61 5
-105 2z"/>
<path d="M4140 584 l-65 -10 60 -7 c33 -3 152 -17 265 -31 113 -13 237 -27
275 -31 39 -4 77 -8 85 -11 80 -22 430 -22 530 0 79 17 334 96 328 100 -1 2
-52 -3 -113 -10 -252 -30 -428 -36 -610 -22 -49 4 -130 10 -180 13 -49 3 -114
8 -143 11 -94 10 -365 9 -432 -2z"/>
<path d="M3160 420 c-181 -26 -313 -35 -500 -35 -153 0 -216 3 -455 19 -49 4
-121 6 -158 6 -38 -1 -67 3 -64 7 7 11 -194 10 -268 -1 l-60 -10 120 -18 c113
-16 515 -66 580 -72 17 -1 63 -3 103 -4 40 -1 71 -6 68 -11 -3 -4 6 -6 20 -3
16 3 30 -1 35 -9 7 -11 9 -11 9 -1 0 9 16 13 53 12 127 -3 417 50 592 108 104
35 96 36 -75 12z"/>
<path d="M4710 338 c0 -5 -41 -9 -92 -8 -100 2 -114 1 -283 -32 -154 -30 -334
-29 -529 2 -231 36 -426 40 -581 10 -29 -6 -5 -8 85 -9 250 -3 436 -36 561
-100 63 -32 84 -38 102 -31 24 10 422 77 502 85 45 4 246 29 320 40 17 2 57 7
90 11 33 4 72 12 87 19 22 9 11 10 -65 7 -51 -2 -116 0 -144 6 -33 6 -53 6
-53 0z"/>
</g>
</svg>
