<!DOCTYPE svg PUBLIC "-//W3C//DTD SVG 1.1//EN" "http://www.w3.org/Graphics/SVG/1.1/DTD/svg11.dtd">
<!-- Uploaded to: SVG Repo, www.svgrepo.com, Transformed by: SVG Repo Mixer Tools -->
<svg width="64px" height="64px" viewBox="-2.4 -2.4 28.80 28.80" xmlns="http://www.w3.org/2000/svg" id="left-square" class="icon glyph" fill="#0096fd" transform="matrix(-1, 0, 0, 1, 0, 0)rotate(0)" stroke="#0096fd">
<g id="SVGRepo_bgCarrier" stroke-width="0"/>
<g id="SVGRepo_tracerCarrier" stroke-linecap="round" stroke-linejoin="round" stroke="#0096fd" stroke-width="2.448">
<path d="M20,2H4A2,2,0,0,0,2,4V20a2,2,0,0,0,2,2H20a2,2,0,0,0,2-2V4A2,2,0,0,0,20,2ZM14.62,15.22a1,1,0,0,1,.16,1.4A1,1,0,0,1,14,17a1,1,0,0,1-.62-.22l-5-4a1,1,0,0,1,0-1.56l5-4a1,1,0,0,1,1.24,1.56L10.6,12Z" style="fill:#27324a"/>
</g>
<g id="SVGRepo_iconCarrier">
<path d="M20,2H4A2,2,0,0,0,2,4V20a2,2,0,0,0,2,2H20a2,2,0,0,0,2-2V4A2,2,0,0,0,20,2ZM14.62,15.22a1,1,0,0,1,.16,1.4A1,1,0,0,1,14,17a1,1,0,0,1-.62-.22l-5-4a1,1,0,0,1,0-1.56l5-4a1,1,0,0,1,1.24,1.56L10.6,12Z" style="fill:#27324a"/>
</g>
</svg>